<?xml version="1.0" encoding="UTF-8" standalone="no"?>
<!-- Created with Inkscape (http://www.inkscape.org/) -->

<svg
   version="1.1"
   id="svg1"
   width="1987"
   height="1428"
   viewBox="0 0 1987 1428"
   xmlns="http://www.w3.org/2000/svg"
   xmlns:svg="http://www.w3.org/2000/svg">
  <defs
     id="defs1" />
  <g
     id="g1">
    <path
       style="fill:#000000"
       d="m 1238,174.646 c 0,-13.56003 0.3666,-21.5 0.9926,-21.5 1.479,0 36.5777,13.27985 43.5074,16.46136 3.3,1.51506 10.275,4.68245 15.5,7.03864 28.8393,13.00494 40,18.28724 40,18.93174 0,0.31254 -22.5,0.56826 -50,0.56826 h -50 z"
       id="tribune-ganay-aa" />
    <path
       style="fill:#000000"
       d="m 1120.5,160.64643 c 0,-30.88936 0.1948,-35.49981 1.5,-35.49883 1.4481,0.001 8.0737,1.14783 26,4.49995 4.675,0.8742 12.325,2.27575 17,3.11455 7.242,1.29939 37.1353,9.2495 52,13.8294 2.475,0.76256 6.4125,1.89163 8.75,2.50903 l 4.25,1.12256 v 22.96145 22.96146 l -54.75,2e-4 -54.75,2e-4 z"
       id="tribune-ganay-ab" />
    <path
       style="fill:#000000"
       d="M 1006.6667,195.47933 C 1006.3,195.11267 1006,176.66267 1006,154.47933 V 114.146 l 6.25,0.0136 c 12.4031,0.027 44.8979,1.98399 56.9433,3.42945 23.2063,2.78477 29.3173,3.57368 36.0567,4.65482 l 6.75,1.08284 v 36.40965 36.40965 h -52.3333 c -28.7834,0 -52.6334,-0.3 -53,-0.66667 z"
       id="tribune-ganay-ac" />
    <path
       style="fill:#000000"
       d="m 891.7739,159.04996 c -0.15064,-20.40282 0.0582,-37.30102 0.46403,-37.55156 0.40587,-0.25054 8.95587,-1.325 19,-2.38769 10.04414,-1.0627 21.94428,-2.40216 26.44476,-2.97658 4.50048,-0.57442 19.98713,-1.3305 34.41479,-1.68017 l 26.2321,-0.63576 -0.66295,29.4139 c -0.36462,16.17764 -0.66377,34.7014 -0.66479,41.1639 L 997,196.146 h -52.4761 -52.47609 z"
       id="tribune-ganay-ad" />
    <path
       style="fill:#000000"
       d="m 771,171.72178 c 0,-22.41316 0.14519,-24.48398 1.75,-24.95898 0.9625,-0.28489 13.675,-3.73985 28.25,-7.67769 24.67213,-6.66586 32.04767,-8.28928 57,-12.54617 23.46415,-4.00301 24.17922,-4.08947 24.60671,-2.97545 0.23068,0.60114 0.30104,17.06563 0.15635,36.58775 L 882.5,195.646 l -55.75,0.25839 -55.75,0.2584 z"
       id="tribune-ganay-ae" />
    <path
       style="fill:#000000"
       d="m 653.55,195.25085 c 0.80931,-0.76257 10.26662,-5.19386 41.45,-19.42168 3.025,-1.38019 9.1,-4.16849 13.5,-6.19621 4.4,-2.02773 13.625,-5.62744 20.5,-7.99936 6.875,-2.37192 16.94118,-5.92696 22.36929,-7.90009 5.42811,-1.97313 10.04061,-3.58751 10.25,-3.58751 0.20939,0 0.38071,10.35 0.38071,23 v 23 h -54.7 c -32.23592,0 -54.30986,-0.36762 -53.75,-0.89515 z"
       id="tribune-ganay-af" />
    <path
       style="fill:#000000"
       d="m 1119,207.16342 v -4.99338 l 89.0544,-0.002 89.0544,-0.002 -0.3044,4.74016 -0.3044,4.74017 -88.75,0.2554 -88.75,0.25541 z"
       id="tribune-ganay-ah" />
    <path
       style="fill:#000000"
       d="M 731.75,212.38503 690,212.12406 v -4.98903 -4.98903 h 89 89 v 5 5 l -41.75,0.0985 c -22.9625,0.0542 -44.225,0.1667 -47.25,0.25 -3.025,0.0833 -24.2875,0.034 -47.25,-0.1095 z"
       id="tribune-ganay-ag" />
    <path
       style="fill:#000000"
       d="m 1286,249.146 v -30 h 35.8474 35.8474 l 8.9026,5.62677 c 4.8964,3.09472 11.6026,7.30546 14.9026,9.3572 22.9368,14.26069 48.2019,30.35632 49.2551,31.37893 1.0048,0.97566 0.8369,2.45689 -0.8418,7.42789 l -2.0969,6.20921 H 1356.9082 1286 Z"
       id="tribune-ganay-b" />
    <path
       style="fill:#000000"
       d="m 533.03795,278.40131 c 0.0209,-0.41555 1.70837,-1.93097 3.75,-3.3676 2.04163,-1.43663 18.52027,-13.92413 36.61921,-27.75 L 606.31433,222.146 h 49.85841 49.85841 l -0.26558,28.25 -0.26557,28.25 -86.25,0.25555 c -47.4375,0.14056 -86.23292,-0.0844 -86.21205,-0.5 z"
       id="tribune-ganay-n" />
    <path
       style="fill:#000000"
       d="m 1172,251.14576 v -30 h 52.5 52.5 v 30 30 h -52.5 -52.5 z"
       id="tribune-ganay-d" />
    <path
       style="fill:#000000"
       d="M 1056,251.15476 V 221.146 h 53.5149 53.5149 l -0.2649,29.75 -0.2649,29.75 -53.25,0.25876 -53.25,0.25877 z"
       id="tribune-ganay-f" />
    <path
       style="fill:#000000"
       d="m 944.98413,280.646 c -0.009,-0.275 -0.0231,-13.6625 -0.0319,-29.75 l -0.016,-29.25 50.53188,-0.25917 L 1046,221.12767 v 30.00916 30.00917 h -50.5 c -27.775,0 -50.50714,-0.225 -50.51587,-0.5 z"
       id="tribune-ganay-h" />
    <path
       style="fill:#000000"
       d="M 828.67534,280.48801 C 828.3039,280.11657 828,266.60876 828,250.47065 v -29.34203 l 53.75,0.25869 53.75,0.25869 v 29.5 29.5 l -53.07466,0.25867 c -29.19106,0.14228 -53.37856,-0.0452 -53.75,-0.41666 z"
       id="tribune-ganay-j" />
    <path
       style="fill:#000000"
       d="m 714,251.146 v -30 h 52.5 52.5 v 30 30 H 766.5 714 Z"
       id="tribune-ganay-l" />
    <path
       style="fill:#000000"
       d="m 1330,319.65484 v -31.49116 l 52.7055,-0.25884 52.7055,-0.25884 1.7828,-6.93826 c 0.9805,-3.81604 2.1556,-7.31112 2.6113,-7.76683 0.4557,-0.45571 4.3985,2.27573 8.7617,6.06987 4.3633,3.79414 19.8582,17.11299 34.4332,29.59745 14.575,12.48447 26.5,23.03815 26.5,23.45264 0,0.41449 -3.8827,4.87821 -8.6283,9.91937 l -8.6282,9.16576 H 1411.1217 1330 Z"
       id="tribune-ganay-a" />
    <path
       style="fill:#000000"
       d="m 1000,320.646 v -31.5 h 46.5 46.5 v 31.5 31.5 h -46.5 -46.5 z"
       id="tribune-ganay-g" />
    <path
       style="fill:#000000"
       d="m 898,320.646 v -31.5 h 46.5 46.5 v 31.5 31.5 H 944.5 898 Z"
       id="tribune-ganay-i" />
    <path
       style="fill:#000000"
       d="m 782,320.637 v -31.50869 l 53.75,0.25869 53.75,0.25869 0.26425,31.25 0.26424,31.25 H 836.01425 782 Z"
       id="tribune-ganay-k" />
    <path
       style="fill:#000000"
       d="m 672,320.646 v -31.5 h 50 50 v 31.5 31.5 h -50 -50 z"
       id="tribune-ganay-m" />
    <path
       style="fill:#000000"
       d="m 489.39289,343.09697 c -4.34109,-4.97669 -8.02495,-9.42285 -8.18635,-9.88036 -0.59532,-1.68754 14.44491,-18.9567 27.6702,-31.77086 L 522.5,288.2465 590.75,288.19625 659,288.146 v 32 32 h -80.85711 -80.85711 z"
       id="tribune-ganay-o" />
    <path
       id="tribune-ganay-c"
       style="fill:#000000"
       d="m 1247.25,352.38089 -29.25,-0.2651 v -31.49978 -31.49977 l 29.5302,0.26488 29.5302,0.26488 -4e-4,31.38681 c -10e-5,17.26275 -0.1262,31.43775 -0.2802,31.5 -0.1539,0.0623 -13.4423,-0.006 -29.5298,-0.15192 z m 56,-0.009 -17.25,-0.27362 V 320.62239 289.146 h 18 18 v 31.44098 c 0,17.29254 -0.3375,31.58004 -0.75,31.75 -0.4125,0.16996 -8.5125,0.18589 -18,0.0354 z" />
    <path
       style="fill:#000000"
       d="M 1102.4162,352.22933 C 1102.1873,352.00017 1102,337.70876 1102,320.47065 v -31.34203 l 53.75,0.25869 53.75,0.25869 0.2642,31.23284 0.2642,31.23283 -53.5979,0.26717 c -29.4789,0.14694 -53.7853,0.0797 -54.0143,-0.14951 z"
       id="tribune-ganay-e" />
    <path
       style="fill:#000000"
       d="m 1398,406.146 v -45 h 41.5833 c 25.7943,0 41.4568,0.36026 41.25,0.94881 -0.3021,0.86006 -19.5521,21.86569 -55.9071,61.00596 -7.3844,7.95012 -16.1262,17.47484 -19.4262,21.16603 -3.3,3.6912 -6.3375,6.74905 -6.75,6.79523 -0.4125,0.0462 -0.75,-20.16603 -0.75,-44.91603 z"
       id="tribune-ganay-x" />
    <path
       style="fill:#000000"
       d="m 590.83333,450.24885 c -0.31505,-0.84796 -15.4469,-16.74682 -62.78541,-65.96795 -11.30136,-11.7508 -20.69792,-21.7633 -20.88125,-22.25 -0.19011,-0.50467 18.17903,-0.8849 42.75,-0.8849 H 593 v 45 c 0,39.55804 -0.45023,48.72256 -2.16667,44.10285 z"
       id="tribune-ganay-p" />
    <path
       style="fill:#000000"
       d="m 1056,411.65469 c 0,-26.67978 0,-48.84619 0,-49.25869 0,-0.4125 24.1875,-0.75 53.75,-0.75 h 53.75 v 49 49 l -53.75,0.25869 -53.75,0.25868 z"
       id="tribune-ganay-u" />
    <path
       style="fill:#000000"
       d="m 944.9901,459.146 c -0.005,-0.55 -0.0144,-22.7125 -0.0199,-49.25 l -0.01,-48.25 51.01993,-0.25908 L 1047,361.12784 v 49.50908 49.50908 h -51 c -33.32673,0 -51.00343,-0.34654 -51.0099,-1 z"
       id="tribune-ganay-t" />
    <path
       style="fill:#000000"
       d="m 828.4582,458.896 c -0.26346,-0.6875 -0.36184,-22.85 -0.21861,-49.25 l 0.26041,-48 53.75,-0.25869 53.75,-0.25869 v 49.50869 49.50869 h -53.53139 c -41.90296,0 -53.63544,-0.27153 -54.01041,-1.25 z"
       id="tribune-ganay-s" />
    <path
       style="fill:#000000"
       d="m 1286,438.637 v -77.509 l 51.5194,0.259 51.5193,0.259 0.036,50 0.036,50 -25.8056,27.24594 -25.8056,27.24594 -25.75,0.004 -25.75,0.004 z"
       id="tribune-ganay-w" />
    <path
       style="fill:#000000"
       d="m 1172,438.63716 v -77.50884 l 52.75,0.25884 c 29.0125,0.14236 52.6375,0.59634 52.5,1.00884 -0.1375,0.4125 -0.25,35.175 -0.25,77.25 v 76.5 h -52.5 -52.5 z"
       id="tribune-ganay-v" />
    <path
       style="fill:#000000"
       d="m 1001,491.646 v -24.5 h 81 81 v 24.5 24.5 h -81 -81 z"
       id="tribune-ganay-u-bas" />
    <path
       style="fill:#000000"
       d="m 828.44925,514.87436 c -0.26838,-0.6994 -0.36676,-11.6119 -0.21861,-24.25 L 828.5,467.646 909.75,467.39012 991,467.13424 v 24.50588 24.50588 h -81.03139 c -64.63807,0 -81.1301,-0.25726 -81.51936,-1.27164 z"
       id="tribune-ganay-s-bas" />
    <path
       style="fill:#000000"
       d="M 714.24383,438.90484 714.5,361.646 h 52.26266 52.26265 l 1.2e-4,77 1.2e-4,77 -52.51895,0.25884 -52.51895,0.25885 z"
       id="tribune-ganay-r" />
    <path
       style="fill:#000000"
       d="M 628.08534,488.54573 602,460.94547 V 411.04573 361.146 h 51.3367 51.3367 l 0.66218,48.75 c 0.3642,26.8125 0.66268,61.6875 0.6633,77.5 l 0.001,28.75 h -25.91466 -25.91466 z"
       id="tribune-ganay-q" />
    <path
       style="fill:#000000"
       d="m 1482.3616,523.646 c -0.2111,-0.55 -0.2662,-20.0891 -0.1227,-43.42022 l 0.2611,-42.42022 14.8522,-11.32978 14.8521,-11.32978 h 20.4064 20.4064 l -0.2586,54.65652 -0.2585,54.65652 -34.8774,0.0935 c -22.4162,0.0601 -35.0144,-0.26381 -35.261,-0.90652 z"
       id="virage-sud-l" />
    <path
       style="fill:#000000"
       d="M 438.41656,524.22933 C 438.18745,524.00017 438,499.36267 438,469.47933 V 415.146 h 20.69978 20.69979 l 15.31075,11.61155 15.31076,11.61155 -0.26054,43.02295 -0.26054,43.02295 -35.33344,0.1155 c -19.43338,0.0635 -35.52088,-0.072 -35.75,-0.30117 z"
       id="virage-nord-r" />
    <path
       style="fill:#000000"
       d="m 1561.7557,489.896 -0.2557,-83.25 -17.75,-0.27308 c -9.7625,-0.15019 -17.7441,-0.60019 -17.7369,-1 0.017,-0.955 28.3583,-22.2359 29.5609,-22.19687 0.5093,0.0165 9.863,12.05402 20.7859,26.75 21.9516,29.53403 44.1451,65.35187 54.663,88.21995 3.1621,6.875 8.3176,17.9 11.4567,24.5 4.7597,10.00727 19.5204,47.70505 19.5204,49.85359 0,0.35553 -22.4974,0.64641 -49.9943,0.64641 h -49.9942 z"
       id="virage-sud-k" />
    <path
       style="fill:#000000"
       d="m 1482,553.146 v -20 h 35.5 35.5 v 20 20 h -35.5 -35.5 z"
       id="virage-sud-j" />
    <path
       style="fill:#000000"
       d="M 438.22886,553.396 438.5,533.646 474.25,533.38337 510,533.12074 V 553.13337 573.146 H 473.97886 437.95772 Z"
       id="virage-nord-b" />
    <path
       style="fill:#000000"
       d="m 329.32617,572.396 c 0.24431,-0.4125 3.46208,-8.4 7.1506,-17.75 15.60584,-39.55911 18.11776,-45.44442 24.50764,-57.42025 3.69167,-6.91886 9.33275,-17.52975 12.53573,-23.57975 3.20298,-6.05 10.08512,-17.525 15.29364,-25.5 5.20851,-7.975 11.9654,-18.325 15.01529,-23 3.0499,-4.675 11.38112,-16.15 18.51384,-25.5 7.13272,-9.35 13.04167,-17.10568 13.13101,-17.23484 0.297,-0.42941 29.0202,21.90274 29.35941,22.8268 0.19172,0.52226 -7.13689,0.90804 -17.25,0.90804 H 430 v 83.5 83.5 h -50.55902 c -27.80746,0 -50.35912,-0.3375 -50.11481,-0.75 z"
       id="virage-nord-a" />
    <path
       style="fill:#000000"
       d="m 1366,563.33256 v -12.81343 l 17.7391,-17.43657 c 24.0875,-23.67683 54.2519,-53.09545 62.7609,-61.20938 5.4286,-5.1765 6.7755,-7.00266 6,-8.13463 -0.55,-0.80281 -6.7887,-7.55981 -13.8638,-15.01556 l -12.8638,-13.5559 7.3638,-7.82309 c 4.0501,-4.3027 21.7638,-23.08478 39.3638,-41.73796 17.6,-18.65318 34.7289,-36.8076 38.0643,-40.34315 l 6.0643,-6.42828 4.4997,4.90569 c 2.4748,2.69814 10.0484,10.89958 16.8302,18.22544 10.3643,11.19567 12.1082,13.52657 10.936,14.61676 -0.767,0.71336 -16.2445,12.45895 -34.3945,26.1013 -18.15,13.64235 -34.9125,26.35652 -37.25,28.2537 l -4.25,3.44942 v 70.87954 70.87954 h -53.5 -53.5 z"
       id="virage-sud-m" />
    <path
       style="fill:#000000"
       d="M 518,504.76972 V 433.39343 L 492.3172,414.12554 C 478.19167,403.5282 460.91196,390.49297 453.91786,385.15836 l -12.71656,-9.6993 2.65831,-2.90653 c 13.68036,-14.9578 30.68761,-32.90653 31.18047,-32.90653 0.33635,0 8.64183,8.55 18.45663,19 9.8148,10.45 23.98427,25.525 31.48771,33.5 31.8611,33.86342 39.52987,42.11954 39.7769,42.82339 0.14373,0.40951 -5.90449,7.19178 -13.4405,15.07173 l -13.70182,14.32717 12.44159,12.13885 c 6.84288,6.67637 26.5036,25.80623 43.6905,42.51079 L 625,549.38985 V 562.76793 576.146 H 571.5 518 Z"
       id="virage-nord-q" />
    <path
       style="fill:#000000"
       d="m 1505.7367,649.41163 -23.7633,-0.30189 0.2633,-33.73187 0.2633,-33.73187 h 35 35 v 34 34 l -11.5,0.0338 c -6.325,0.0186 -22.1935,-0.10209 -35.2633,-0.26813 z"
       id="virage-sud-i" />
    <path
       style="fill:#000000"
       d="M 462,649.17385 438.5,648.646 v -33.5 -33.5 h 35.5 35.5 l 0.26313,34.25 0.26312,34.25 -12.26312,-0.22215 C 491.01841,649.80167 474.925,649.46417 462,649.17385 Z"
       id="virage-nord-c" />
    <path
       style="fill:#000000"
       d="m 1562,632.646 v -51.5 h 50.8776 c 40.6735,0 51.0951,0.26221 51.9626,1.30741 0.5967,0.71907 3.3432,9.60657 6.1033,19.75 4.5129,16.5856 6.1135,24.22199 11.6206,55.44259 0.8731,4.95 2.2284,12.31063 3.0117,16.35696 0.7833,4.04633 1.4242,7.98383 1.4242,8.75 0,1.17586 -9.744,1.39304 -62.5,1.39304 H 1562 Z"
       id="virage-sud-h" />
    <path
       style="fill:#000000"
       d="m 304.34535,681.896 c 0.30919,-1.2375 1.27608,-6.3 2.14866,-11.25 0.87257,-4.95 2.50037,-14.175 3.61734,-20.5 1.11697,-6.325 2.65783,-15.24745 3.42414,-19.82766 1.72427,-10.30592 11.13417,-45.21079 13.00376,-48.23585 0.34755,-0.56235 21.13014,-0.93649 52.01977,-0.93649 H 430 v 51.5 51.5 h -63.10841 -63.10841 z"
       id="virage-nord-d" />
    <path
       style="fill:#000000"
       d="M 1366.6667,685.47933 C 1366.3,685.11267 1366,662.38767 1366,634.97933 V 585.146 h 53.5 53.5 v 50.5 50.5 h -52.8333 c -29.0584,0 -53.1334,-0.3 -53.5,-0.66667 z"
       id="virage-sud-n" />
    <path
       style="fill:#000000"
       d="M 518.66667,685.47933 C 518.3,685.11267 518,662.38767 518,634.97933 V 585.146 h 53.5 53.5 v 50.5 50.5 h -52.83333 c -29.05834,0 -53.13334,-0.3 -53.5,-0.66667 z"
       id="virage-nord-p" />
    <path
       style="fill:#000000"
       d="m 1482.3612,741.64503 c -0.2112,-0.55053 -0.2664,-19.45053 -0.1226,-42 l 0.2614,-40.99903 35.2609,-0.26281 35.2608,-0.2628 -0.2608,42.03936 -0.2609,42.03936 -34.8773,0.22344 c -22.5593,0.14453 -35.013,-0.13008 -35.2615,-0.77752 z"
       id="virage-sud-g" />
    <path
       style="fill:#000000"
       d="m 438.36077,741.64503 c -0.211,-0.55053 -0.26598,-19.45053 -0.1222,-42 L 438.5,658.646 474.25,658.38337 510,658.12074 v 41.98784 41.98784 l -35.62781,0.27479 c -23.10784,0.17822 -35.76261,-0.077 -36.01142,-0.72618 z"
       id="virage-nord-e" />
    <path
       style="fill:#000000"
       d="m 1366,747.146 v -52 h 53.5 53.5 v 52 52 h -53.5 -53.5 z"
       id="virage-sud-o" />
    <path
       style="fill:#000000"
       d="M 518.66667,798.47933 C 518.3,798.11267 518,774.71267 518,746.47933 V 695.146 h 53.5 53.5 v 52 52 h -52.83333 c -29.05834,0 -53.13334,-0.3 -53.5,-0.66667 z"
       id="virage-nord-o" />
    <path
       style="fill:#000000"
       d="m 1562,747.146 v -54 h 62.9205 62.9206 l 0.5488,2.75 c 1.8104,9.07278 2.7767,51.97728 1.6916,75.11172 -0.6356,13.55105 -1.3998,25.87578 -1.6981,27.38828 l -0.5423,2.75 H 1624.9205 1562 Z"
       id="virage-sud-f" />
    <path
       style="fill:#000000"
       d="m 302.59291,792.896 c -2.65017,-33.96929 -2.65251,-59.15025 -0.009,-92 l 0.62378,-7.75 H 366.60408 430 v 54 54 h -63.38172 -63.38173 z"
       id="virage-nord-f" />
    <path
       style="fill:#000000"
       d="M 1482.6794,835.49209 C 1482.3057,835.1184 1482,815.98767 1482,792.97933 V 751.146 h 35.5109 35.5108 l -0.2608,42.25 -0.2609,42.25 -34.5706,0.26275 c -19.0138,0.14452 -34.8763,-0.043 -35.25,-0.41666 z"
       id="virage-sud-e" />
    <path
       style="fill:#000000"
       d="m 439.23875,835.31472 c -0.98879,-0.6277 -1.20481,-9.75113 -1,-42.23469 L 438.5,751.646 474.25,751.38337 510,751.12074 v 41.90564 c 0,37.28997 -0.17423,41.9725 -1.58179,42.51263 -2.37709,0.91218 -67.72296,0.70031 -69.17946,-0.22429 z"
       id="virage-nord-g" />
    <path
       style="fill:#000000"
       d="m 1366,858.646 v -50.5 h 53.5 53.5 v 50.5 50.5 h -53.5 -53.5 z"
       id="virage-sud-p" />
    <path
       style="fill:#000000"
       d="m 518,858.646 v -50.5 h 53.5 53.5 v 50.5 50.5 H 571.5 518 Z"
       id="virage-nord-n" />
    <path
       style="fill:#000000"
       d="m 1562,860.655 v -51.509 h 62.5 c 49.3376,0 62.4983,0.26325 62.492,1.25 0,0.6875 -1.8259,11.375 -4.0476,23.75 -2.2217,12.375 -4.6902,26.325 -5.4855,31 -0.7953,4.675 -2.0896,10.75 -2.8762,13.5 -0.7867,2.75 -3.183,11.3 -5.3252,19 l -3.895,14 -51.6812,0.259 -51.6813,0.259 z"
       id="virage-sud-d" />
    <path
       style="fill:#000000"
       d="m 1482,878.146 v -34 h 35.5 35.5 v 34 34 h -35.5 -35.5 z"
       id="virage-sud-c" />
    <path
       style="fill:#000000"
       d="m 438.2367,878.396 0.2633,-33.75 h 35.5 35.5 l 0.2633,33.75 0.2633,33.75 H 474 437.97339 Z"
       id="virage-nord-i" />
    <path
       style="fill:#000000"
       d="m 326,911.66684 c 0,-0.49939 -4.71531,-17.27892 -8.0148,-28.52084 -2.13293,-7.26726 -3.22273,-12.869 -9.53279,-49 -0.91252,-5.225 -2.28761,-12.74353 -3.05577,-16.70784 C 304.62849,813.47384 304,809.98296 304,809.68064 c 0,-0.30232 28.2375,-0.43379 62.75,-0.29215 l 62.75,0.25751 0.25908,51.25 0.25908,51.25 H 378.00908 C 349.40409,912.146 326,911.93038 326,911.66684 Z"
       id="virage-nord-h" />
    <path
       style="fill:#000000"
       d="m 642,743.646 v -199.5 H 995.5 1349 v 199.5 199.5 H 995.5 642 Z"
       id="pelouse" />
    <path
       style="fill:#000000"
       d="m 1482.2289,940.6183 0.2711,-19.52771 h 35 35 l 0.2711,19.52771 0.2712,19.52772 H 1517.5 1481.9577 Z"
       id="virage-sud-b" />
    <path
       style="fill:#000000"
       d="m 438,940.646 v -19.5 h 36 36 v 19.5 19.5 h -36 -36 z"
       id="virage-nord-j" />
    <path
       style="fill:#000000"
       d="M 1497.25,1067.4602 1482,1055.8351 v -43.3445 -43.3446 h 35.5 35.5 v 55 55 l -20.25,-0.03 -20.25,-0.03 z"
       id="virage-sud-r" />
    <path
       style="fill:#000000"
       d="m 439.25,1078.4837 c -0.97851,-0.3948 -1.25,-12.3234 -1.25,-54.921 V 969.146 h 36 36 l -0.0153,42.75 c -0.008,23.5125 -0.34593,43.2063 -0.75,43.764 -0.40408,0.5577 -7.53126,6.0702 -15.83817,12.25 l -15.10347,11.236 -18.89653,-0.079 c -10.39309,-0.043 -19.45902,-0.306 -20.14652,-0.5834 z"
       id="virage-nord-l" />
    <path
       style="fill:#000000"
       d="m 1270.6667,1086.4793 c -0.3667,-0.3666 -0.6667,-2.8416 -0.6667,-5.5 v -4.8333 h 55.75 55.75 v 5.5 5.5 h -55.0833 c -30.2959,0 -55.3834,-0.3 -55.75,-0.6667 z"
       id="tribune-jean-bouin-ab" />
    <path
       style="fill:#000000"
       d="m 1390.5004,1088.1466 c -0.3397,-0.5496 -0.5291,-5.3871 -0.4209,-10.75 l 0.1968,-9.7506 -60.1382,-0.2578 -60.1381,-0.2578 v -47.9922 -47.9922 h 20.9317 20.9316 l 25.8184,28.262 c 26.964,29.5161 47.0906,51.6569 61.5758,67.738 9.7219,10.7931 9.7322,9.6677 -0.1566,17.1549 -6.709,5.0797 -7.5935,5.4752 -8.6005,3.8457 z"
       id="tribune-jean-bouin-i" />
    <path
       style="fill:#000000"
       d="m 1164.6667,1088.4793 c -0.3667,-0.3666 -0.6667,-26.9166 -0.6667,-59 V 971.146 h 48.5 48.5 v 59 59 h -47.8333 c -26.3084,0 -48.1334,-0.3 -48.5,-0.6667 z"
       id="tribune-jean-bouin-g" />
    <path
       style="fill:#000000"
       d="m 1110,1030.146 v -59 h 22.5 22.5 v 59 59 h -22.5 -22.5 z"
       id="tribune-jean-bouin-f" />
    <path
       style="fill:#000000"
       d="m 1055.9759,1088.4148 c -0.013,-0.4229 -0.1257,-12.2438 -0.25,-26.2688 l -0.2259,-25.5 -24.5,-0.5 -24.5,-0.5 -0.2639,-32.25 -0.2638,-32.25 h 48.0218 48.0219 l -0.258,58.75 -0.258,58.75 -22.75,0.2688 c -12.5125,0.1478 -22.7608,-0.077 -22.7741,-0.5 z"
       id="tribune-jean-bouin-vide-2" />
    <path
       style="fill:#000000"
       d="m 951,1067.1557 v -22.0097 h 48.0195 48.0195 l -0.2695,21.75 -0.2695,21.75 -47.75,0.2597 -47.75,0.2597 z"
       id="tribune-jean-bouin-loges" />
    <path
       style="fill:#000000"
       d="M 902,1030.1671 V 971.146 h 48.01385 48.01385 l -0.26385,32.25 -0.26385,32.25 -27.73343,0.2658 -27.73343,0.2658 -0.26657,26.2342 -0.26657,26.2342 -19.75,0.2711 -19.75,0.2712 z"
       id="tribune-jean-bouin-vide-1" />
    <path
       style="fill:#000000"
       d="m 847.49257,1086.896 c -0.30005,-1.2375 -0.42112,-27.675 -0.26905,-58.75 l 0.27648,-56.5 22.75,-0.26878 22.75,-0.26877 v 59.01875 59.0188 H 870.51905 848.0381 Z"
       id="tribune-jean-bouin-e" />
    <path
       style="fill:#000000"
       d="m 762,1030.146 v -59.02377 l 38.25,0.26189 38.25,0.26188 v 58.5 58.5 l -38.25,0.2619 -38.25,0.2619 z"
       id="tribune-jean-bouin-d" />
    <path
       style="fill:#000000"
       d="m 621,1085.6716 v -3.4459 l 32.25,-0.2899 c 17.7375,-0.1594 32.73321,0.037 33.32379,0.4364 0.59059,0.3994 1.49059,0.3994 2,0 0.50942,-0.3994 15.21371,-0.5955 32.67621,-0.4358 l 31.75,0.2904 v 3.4447 3.4446 l -66,7e-4 -66,7e-4 z"
       id="tribune-jean-bouin-aa" />
    <path
       style="fill:#000000"
       d="m 599.08399,1080.4571 c -3.86486,-4.8461 -7.03984,-9.4293 -7.05551,-10.1848 -0.0157,-0.7555 3.90902,-5.4953 8.72152,-10.5329 4.8125,-5.0376 25.56426,-27.0319 46.11503,-48.8763 L 684.23007,971.146 H 718.61503 753 v 51 51 h -70.45794 -70.45793 l -0.29207,7.75 c -0.28596,7.588 -0.34838,7.7565 -2.98656,8.0611 -2.33021,0.269 -3.64452,-0.8802 -9.72151,-8.5 z"
       id="tribune-jean-bouin-b" />
    <path
       style="fill:#000000"
       d="m 1539.7961,1099.7072 c -8.0872,-6.226 -14.4247,-11.5993 -14.0833,-11.9406 0.3413,-0.3413 8.6455,-0.6206 18.4539,-0.6206 H 1562 v -83 -83 h 50 c 27.5,0 50,0.21797 50,0.48437 0,2.10236 -26.2907,65.17855 -30.4335,73.01563 -2.9074,5.5 -8.3384,15.85 -12.0688,23 -7.3466,14.0809 -6.9338,13.4097 -26.7496,43.5 -12.6279,19.1754 -35.024,48.9991 -37.2541,49.6093 -0.5467,0.1496 -7.6108,-4.822 -15.6979,-11.0481 z"
       id="virage-sud-a" />
    <path
       style="fill:#000000"
       d="m 423.56394,1095.9077 c -15.31814,-19.7018 -42.35734,-60.627 -51.0467,-77.2617 -3.73489,-7.15 -9.29565,-17.725 -12.35723,-23.5 -3.06159,-5.775 -11.2393,-24.675 -18.1727,-42 l -12.60618,-31.5 49.46668,-0.25943 c 27.20667,-0.14268 49.59835,-0.12774 49.75929,0.0332 0.16095,0.16094 0.61219,37.51519 1.00277,83.00943 l 0.71014,82.7168 H 448.16 c 9.812,0 17.82063,0.3375 17.79695,0.75 -0.0342,0.5968 -27.94905,22.0156 -29.99069,23.0117 -0.29501,0.1439 -5.87606,-6.6061 -12.40232,-15 z"
       id="virage-nord-k" />
    <path
       style="fill:#000000"
       d="m 1348,1113.646 v -16.5 h 24.3411 24.3412 l 8.345,-6.5213 c 4.5897,-3.5867 8.7376,-6.3904 9.2175,-6.2304 0.48,0.16 5.4981,5.4395 11.1515,11.7323 l 10.2789,11.4415 -14.7805,11.2889 -14.7804,11.289 H 1377.0572 1348 Z"
       id="tribune-jean-bouin-j" />
    <path
       style="fill:#000000"
       d="m 1245.2252,1113.896 0.2748,-16.25 46.75,-0.2599 46.75,-0.2599 v 16.5099 16.5099 h -47.0248 -47.0247 z"
       id="tribune-jean-bouin-h" />
    <path
       style="fill:#000000"
       d="m 1127.4407,1128.8521 c -0.2731,-0.7117 -0.3715,-8.0242 -0.2186,-16.25 l 0.2779,-14.9561 54.25,-0.2586 54.25,-0.2586 v 16.5086 16.5086 h -54.0314 c -43.281,0 -54.1302,-0.2574 -54.5279,-1.2939 z"
       id="tribune-jean-bouin-sud-2" />
    <path
       style="fill:#000000"
       d="m 1004,1114.1542 v -16.0082 l 42,-0.2348 c 23.1,-0.1292 48.8625,-0.2417 57.25,-0.25 l 15.25,-0.015 v 16 16 l -57.25,0.2582 -57.25,0.2582 z"
       id="tribune-jean-bouin-sud-1" />
    <path
       style="fill:#000000"
       d="m 884.4407,1128.8521 c -0.27309,-0.7117 -0.37147,-8.0242 -0.21861,-16.25 l 0.27791,-14.9561 55.25,-0.2585 55.25,-0.2584 v 16.5084 16.5085 h -55.03139 c -44.09913,0 -55.13002,-0.257 -55.52791,-1.2939 z"
       id="tribune-jean-bouin-nord-1" />
    <path
       style="fill:#000000"
       d="m 758,1113.646 v -16.516 l 58.75,0.258 58.75,0.258 v 16 16 l -58.75,0.258 -58.75,0.258 z"
       id="tribune-jean-bouin-nord-2" />
    <path
       style="fill:#000000"
       d="m 684,1113.646 v -16.5 h 32.5 32.5 v 16.5 16.5 H 716.5 684 Z"
       id="tribune-jean-bouin-c" />
    <path
       style="fill:#000000"
       d="M 578.13339,1115.2518 C 570.36002,1107.0599 564,1100.0404 564,1099.6527 c 0,-0.9931 20.10826,-22.5067 21.03649,-22.5067 0.4194,0 4.07026,4.4802 8.11303,9.956 l 7.35048,9.956 37,0.294 37,0.294 0.27477,16.25 0.27477,16.25 h -41.39138 -41.39139 z"
       id="tribune-jean-bouin-a" />
    <path
       style="fill:#000000"
       d="m 1491.9121,1128.4344 c -13.3965,-14.1836 -27.3272,-28.9384 -30.957,-32.7884 -3.6298,-3.85 -10.6436,-11.275 -15.5861,-16.5 -4.9425,-5.225 -11.2838,-11.9776 -14.0918,-15.0058 l -5.1055,-5.5059 4.5244,-4.9941 c 2.4884,-2.7468 8.7491,-9.3115 13.9127,-14.5881 l 9.3883,-9.5939 -32.2485,-31.40235 c -17.7367,-17.27128 -37.5361,-36.54526 -43.9986,-42.83107 L 1366,943.79605 V 930.47102 917.146 h 53.5 53.5 v 70.96104 c 0,69.11906 0.051,71.00746 1.9534,72.74996 1.0743,0.984 18.3715,14.164 38.4382,29.289 20.0666,15.125 36.5077,27.725 36.5357,28 0.068,0.666 -31.8441,35.4186 -32.8631,35.7884 -0.4371,0.1586 -11.7555,-11.3164 -25.1521,-25.5 z"
       id="virage-sud-q" />
    <path
       style="fill:#000000"
       d="m 458.0954,1136.7187 c -8.85247,-9.5851 -16.09045,-17.7976 -16.0844,-18.25 0.006,-0.4525 17.08644,-13.6477 37.95643,-29.3227 l 37.94543,-28.5 0.0436,-71.75 0.0436,-71.75 h 53.5 53.5 v 13.85469 13.8547 l -4.38744,3.8953 c -2.41309,2.14242 -19.17559,18.30403 -37.25,35.91469 -18.07441,17.61062 -35.76641,34.77772 -39.31556,38.14912 l -6.453,6.1297 9.11957,9.8509 c 5.01576,5.418 11.18211,11.8571 13.703,14.3091 4.33856,4.22 5.52338,6.4499 3.83343,7.2145 -0.4125,0.1866 -4.125,3.9423 -8.25,8.346 -4.125,4.4037 -11.325,12.0591 -16,17.0122 -4.675,4.953 -21.03665,22.3848 -36.35922,38.7373 -15.32257,16.3525 -28.21713,29.7318 -28.65459,29.7318 -0.43746,0 -8.03831,-7.8423 -16.89079,-17.4273 z"
       id="virage-nord-m" />
    <path
       style="fill:#000000"
       d="m 1384,1176.646 v -37.5 l 6.25,-0.1067 c 3.4375,-0.059 8.6836,-0.056 11.658,0.01 6.4593,0.1341 6.9382,-0.1246 25.5897,-13.8216 l 13.9978,-10.2794 0.7669,4.3511 c 0.4218,2.3931 1.3967,8.6261 2.1664,13.8511 0.7697,5.225 2.8217,18.725 4.56,30 1.7384,11.275 3.5688,23.2 4.0677,26.5 0.7501,4.9619 0.5535,7.2111 -1.1367,13 -1.1241,3.85 -2.4563,8.0125 -2.9604,9.25 l -0.9165,2.25 H 1416.0214 1384 Z"
       id="tribune-jean-bouin-p" />
    <path
       style="fill:#000000"
       d="m 1296,1176.646 v -37.5 l 17,-0.02 c 9.35,-0.011 27.0125,-0.03 39.25,-0.041 l 22.25,-0.021 0.262,37.5411 0.262,37.541 H 1335.512 1296 Z"
       id="tribune-jean-bouin-o" />
    <path
       style="fill:#000000"
       d="m 1242.238,1176.609 0.262,-37.5369 16.5,-0.01 c 9.075,-0.01 19.0875,0.011 22.25,0.037 l 5.75,0.047 v 37.5 37.5 h -22.512 -22.5121 z"
       id="tribune-jean-bouin-n" />
    <path
       style="fill:#000000"
       d="m 1101,1176.646 v -37.5 l 32.25,-0.013 c 17.7375,-0.01 47.4376,-0.1194 66.0003,-0.25 l 33.7503,-0.2375 -3e-4,37.75 -3e-4,37.75 h -66 -66 z"
       id="tribune-jean-bouin-vide-4" />
    <path
       style="fill:#000000"
       d="m 1003.4559,1212.8899 c -0.2648,-0.6899 -0.3631,-17.577 -0.2186,-37.527 l 0.2627,-36.2726 44,-0.01 44,-0.01 0.262,37.5373 0.262,37.5372 h -44.0434 c -34.3941,0 -44.1488,-0.2748 -44.5247,-1.2544 z"
       id="tribune-jean-bouin-prestige-2" />
    <path
       style="fill:#000000"
       d="m 902.23797,1176.6025 0.26203,-37.5418 45.74999,-0.2082 45.74999,-0.2082 10e-6,37.75 10e-6,37.75 h -46.01203 -46.01202 z"
       id="tribune-jean-bouin-prestige-1" />
    <path
       style="fill:#000000"
       d="m 758.00005,1176.3943 5e-5,-37.75 67.24995,0.1936 67.24995,0.1935 0.26201,36.8929 0.262,36.893 -49.6764,0.6635 c -27.32202,0.3649 -57.70243,0.6635 -67.51201,0.6635 H 758 Z"
       id="tribune-jean-bouin-vide-3" />
    <path
       style="fill:#000000"
       d="m 682.23797,1176.6103 0.26203,-37.5341 33,-0.062 33,-0.062 0.26202,37.5964 0.26203,37.5964 H 715.5 681.97595 Z"
       id="tribune-jean-bouin-m" />
    <path
       style="fill:#000000"
       d="m 618.23797,1176.6103 0.26203,-37.5357 27.25037,-0.2143 27.25038,-0.2143 -3.8e-4,37.75 -3.7e-4,37.75 h -27.51203 -27.51202 z"
       id="tribune-jean-bouin-l" />
    <path
       style="fill:#000000"
       d="m 561.76988,1207.896 c -8.75383,-12.4184 -17.76987,-26.5736 -17.76914,-27.8976 4e-4,-0.7438 1.7553,-10.3524 3.89977,-21.3524 2.14447,-11 5.11297,-26.525 6.59667,-34.5 1.4837,-7.975 2.90134,-15.1581 3.15032,-15.9623 0.29494,-0.9528 5.86875,4.1906 15.99489,14.7597 l 15.5422,16.222 9.65771,-0.1788 9.6577,-0.1787 0.26202,37.6691 0.26203,37.669 H 587.5998 566.17555 Z"
       id="tribune-jean-bouin-k" />
    <path
       style="fill:#000000"
       d="m 925,1268.8093 v -42.3367 l 48.75,-0.6622 c 81.8746,-1.1121 100.9302,-0.9401 101.643,0.9174 0.7927,2.0656 0.7927,80.7708 0,82.8364 -0.546,1.4229 -8.1298,1.5818 -75.49999,1.5818 H 925 Z"
       id="tribune-jean-bouin-tribune-presse" />
    <path
       style="fill:#000000"
       d="m 649.08483,1305.2837 c -22.1061,-19.4839 -24.88217,-22.3429 -49.65509,-51.1377 -14.43195,-16.775 -25.91833,-30.8418 -25.52529,-31.2595 0.39304,-0.4178 22.96283,-0.6428 50.15508,-0.5 l 49.44047,0.2595 0.25927,50.9407 c 0.1426,28.0174 -0.0824,51.2544 -0.5,51.6377 -0.4176,0.3834 -11.2961,-8.59 -24.17444,-19.9407 z"
       id="tribune-jean-bouin-q" />
    <path
       style="fill:#000000"
       d="m 1325,1274.705 v -52.559 h 58.8333 c 32.3584,0 59.089,0.2557 59.4015,0.5681 1.4159,1.4159 -12.1513,18.6264 -26.7348,33.9142 -13.658,14.3175 -19.3738,19.3737 -39.0485,34.5422 -18.5913,14.3332 -35.0378,25.6869 -51.2015,35.3465 -0.9936,0.5938 -1.25,-10.033 -1.25,-51.812 z"
       id="tribune-jean-bouin-z" />
    <path
       style="fill:#000000"
       d="m 1262,1290.6297 v -68.5164 l 26.75,0.2664 26.75,0.2663 v 54.8886 54.8885 l -26,13.3044 c -14.3,7.3173 -26.3375,13.33 -26.75,13.3614 -0.4125,0.031 -0.75,-30.7753 -0.75,-68.4592 z"
       id="tribune-jean-bouin-y" />
    <path
       style="fill:#000000"
       d="m 721,1357.0603 c -7.975,-4.9826 -19.7875,-12.2678 -26.25,-16.1893 l -11.75,-7.13 v -55.7975 -55.7975 h 26.5 26.5 v 72 c 0,39.6 -0.1125,71.9941 -0.25,71.9869 -0.1375,-0.01 -6.775,-4.0899 -14.75,-9.0726 z"
       id="tribune-jean-bouin-r" />
    <path
       style="fill:#000000"
       d="m 1164,1325.146 v -70 h 45.0086 45.0086 l -0.2586,54.1447 -0.2586,54.1448 -9,3.3 c -4.95,1.8151 -14.7375,5.3499 -21.75,7.8553 -19.2686,6.8841 -36.143,12.9518 -47.1515,16.9548 -5.4459,1.9802 -10.2834,3.6004 -10.75,3.6004 -0.4667,0 -0.8485,-31.5 -0.8485,-70 z"
       id="tribune-jean-bouin-x" />
    <path
       style="fill:#000000"
       d="m 828.5,1403.6748 c -3.85,-1.266 -10.375,-3.2864 -14.5,-4.4897 -10.32945,-3.0133 -10.60499,-3.1194 -36.5,-14.0504 -12.65,-5.3399 -25.13581,-10.5593 -27.74625,-11.5988 l -4.74625,-1.8899 -0.004,-58.25 -0.004,-58.25 h 45.87967 45.87968 l 0.70225,66.25 c 0.75252,70.9923 0.60478,83.9493 -0.9616,84.3346 -0.55,0.1353 -4.15,-0.7898 -8,-2.0558 z"
       id="tribune-jean-bouin-s" />
    <path
       style="fill:#000000"
       d="m 1093,1333.646 v -78.5 h 31 31 v 71.4224 71.4225 l -3.25,0.9749 c -1.7875,0.5362 -6.4,1.6797 -10.25,2.5411 -3.85,0.8615 -15.9215,3.6077 -26.8256,6.1027 -10.9041,2.495 -20.2416,4.5364 -20.75,4.5364 -0.558,0 -0.9244,-31.113 -0.9244,-78.5 z"
       id="tribune-jean-bouin-w" />
    <path
       style="fill:#000000"
       d="m 899.91667,1418.7416 c -0.22917,-0.2225 -7.39167,-1.6401 -15.91667,-3.1503 -8.525,-1.5102 -20.45,-3.6907 -26.5,-4.8455 l -11,-2.0998 -0.32951,-10.5 c -0.18123,-5.775 -0.0146,-40.3125 0.37033,-76.75 l 0.69983,-66.25 H 876.62032 906 v 82 82 h -2.83333 c -1.55834,0 -3.02084,-0.182 -3.25,-0.4044 z"
       id="tribune-jean-bouin-t" />
    <path
       id="tribune-jean-bouin-v"
       style="fill:#000000"
       d="m 1005,1397.0831 v -25.9371 h 39.5 39.5 v 21.4096 21.4097 l -6.75,1.0096 c -3.7125,0.5553 -14.175,1.7549 -23.25,2.6658 -17.704,1.7771 -40.4555,4.236 -45.75,4.9446 l -3.25,0.435 z m 0.2297,-55.6871 0.2703,-20.75 39.25,-0.2616 39.25,-0.2616 v 21.0116 21.0116 h -39.5203 -39.5203 z" />
    <path
       id="tribune-jean-bouin-u"
       style="fill:#000000"
       d="m 948.5,1421.8937 c -17.05,-0.4443 -31.5625,-1.0051 -32.25,-1.2463 -0.95411,-0.3348 -1.25,-6.2455 -1.25,-24.97 v -24.5314 h 41 41 v 26.0507 26.0506 l -8.75,-0.2729 c -4.8125,-0.1501 -22.7,-0.6364 -39.75,-1.0807 z M 915,1341.1348 v -21.0112 l 40.75,0.2612 40.75,0.2612 0.27029,20.75 0.27029,20.75 H 956.02029 915 Z" />
  </g>
</svg>
